<?xml version="1.0" encoding="UTF-8" standalone="no"?>
<!DOCTYPE svg PUBLIC "-//W3C//DTD SVG 1.1//EN"
 "http://www.w3.org/Graphics/SVG/1.1/DTD/svg11.dtd">
<!-- Generated by graphviz version 2.43.0 (0) -->
<!-- Title: Java Containerized Application on AWS (500 Peak Users) Pages: 1 -->
<svg width="609pt" height="1415pt" viewBox="0.00 0.00 609.00 1415.00" xmlns="http://www.w3.org/2000/svg" xmlns:xlink="http://www.w3.org/1999/xlink">
<g id="graph0" class="graph" transform="scale(1 1) rotate(0) translate(36 1379)">
<title>Java Containerized Application on AWS (500 Peak Users)</title>
<polygon fill="white" stroke="transparent" points="-36,36 -36,-1379 573,-1379 573,36 -36,36"/>
<text text-anchor="middle" x="268.5" y="-10" font-family="Sans-Serif" font-size="20.00" fill="#2d3436">Java Containerized Application on AWS (500 Peak Users)</text>
<g id="clust1" class="cluster">
<title>cluster_AWS Cloud</title>
<path fill="#e8f4fc" stroke="#232f3e" d="M130,-38C130,-38 407,-38 407,-38 413,-38 419,-44 419,-50 419,-50 419,-1145 419,-1145 419,-1151 413,-1157 407,-1157 407,-1157 130,-1157 130,-1157 124,-1157 118,-1151 118,-1145 118,-1145 118,-50 118,-50 118,-44 124,-38 130,-38"/>
<text text-anchor="middle" x="167" y="-1140.2" font-family="Sans-Serif" font-size="16.00" fill="#2d3436">AWS Cloud</text>
</g>
<g id="clust2" class="cluster">
<title>cluster_VPC (Multi-AZ)</title>
<path fill="#f7f9fc" stroke="#545b64" d="M138,-46C138,-46 399,-46 399,-46 405,-46 411,-52 411,-58 411,-58 411,-925 411,-925 411,-931 405,-937 399,-937 399,-937 138,-937 138,-937 132,-937 126,-931 126,-925 126,-925 126,-58 126,-58 126,-52 132,-46 138,-46"/>
<text text-anchor="middle" x="181.5" y="-921.8" font-family="Sans-Serif" font-size="14.00" fill="#2d3436">VPC (Multi-AZ)</text>
</g>
<g id="clust3" class="cluster">
<title>cluster_Public Subnets</title>
<path fill="#e6f4ea" stroke="#137333" d="M221,-731C221,-731 315,-731 315,-731 321,-731 327,-737 327,-743 327,-743 327,-894 327,-894 327,-900 321,-906 315,-906 315,-906 221,-906 221,-906 215,-906 209,-900 209,-894 209,-894 209,-743 209,-743 209,-737 215,-731 221,-731"/>
<text text-anchor="middle" x="262.5" y="-891.6" font-family="Sans-Serif" font-size="13.00" fill="#2d3436">Public Subnets</text>
</g>
<g id="clust4" class="cluster">
<title>cluster_Private Subnets</title>
<path fill="#fff4e5" stroke="#b06000" d="M146,-54C146,-54 391,-54 391,-54 397,-54 403,-60 403,-66 403,-66 403,-678 403,-678 403,-684 397,-690 391,-690 391,-690 146,-690 146,-690 140,-690 134,-684 134,-678 134,-678 134,-66 134,-66 134,-60 140,-54 146,-54"/>
<text text-anchor="middle" x="190.5" y="-675.6" font-family="Sans-Serif" font-size="13.00" fill="#2d3436">Private Subnets</text>
</g>
<g id="node1" class="node">
<title>users</title>
<image xlink:href="https://raw.githubusercontent.com/mingrammer/diagrams/master/resources/aws/general/users.png" width="101px" height="101px" preserveAspectRatio="xMinYMin meet" x="217.5" y="-1325"/>
<text text-anchor="middle" x="268" y="-1209.6" font-family="Sans-Serif" font-size="13.00" fill="#2d3436">Users</text>
</g>
<g id="node2" class="node">
<title>route53</title>
<image xlink:href="https://raw.githubusercontent.com/mingrammer/diagrams/master/resources/aws/network/route-53.png" width="101px" height="101px" preserveAspectRatio="xMinYMin meet" x="217.5" y="-1105"/>
<text text-anchor="middle" x="268" y="-989.6" font-family="Sans-Serif" font-size="13.00" fill="#2d3436">Route 53</text>
</g>
<g id="edge1" class="edge">
<title>users-route53</title>
<path fill="none" stroke="#7b8894" d="M268,-1205.8C268,-1205.8 268,-1133.06 268,-1133.06"/>
<polygon fill="#7b8894" stroke="#7b8894" points="271.5,-1133.06 268,-1123.06 264.5,-1133.06 271.5,-1133.06"/>
<text text-anchor="middle" x="285" y="-1168.2" font-family="Sans-Serif" font-size="11.00" fill="#2d3436">HTTPS</text>
</g>
<g id="node3" class="node">
<title>alb</title>
<image xlink:href="https://raw.githubusercontent.com/mingrammer/diagrams/master/resources/aws/network/elb-application-load-balancer.png" width="101px" height="101px" preserveAspectRatio="xMinYMin meet" x="217.5" y="-858"/>
<text text-anchor="middle" x="268" y="-742.6" font-family="Sans-Serif" font-size="13.00" fill="#2d3436">Application Load Balancer</text>
</g>
<g id="edge2" class="edge">
<title>route53-alb</title>
<path fill="none" stroke="#7b8894" d="M268,-985.7C268,-985.7 268,-886.36 268,-886.36"/>
<polygon fill="#7b8894" stroke="#7b8894" points="271.5,-886.36 268,-876.36 264.5,-886.36 271.5,-886.36"/>
<text text-anchor="middle" x="288" y="-948.2" font-family="Sans-Serif" font-size="11.00" fill="#2d3436">Resolve</text>
</g>
<g id="node4" class="node">
<title>ecs</title>
<image xlink:href="https://raw.githubusercontent.com/mingrammer/diagrams/master/resources/aws/compute/elastic-container-service.png" width="101px" height="101px" preserveAspectRatio="xMinYMin meet" x="217.5" y="-642"/>
<text text-anchor="middle" x="268" y="-526.6" font-family="Sans-Serif" font-size="13.00" fill="#2d3436">Amazon ECS / EKS</text>
</g>
<g id="edge3" class="edge">
<title>alb-ecs</title>
<path fill="none" stroke="#7b8894" d="M268,-738.86C268,-738.86 268,-670.33 268,-670.33"/>
<polygon fill="#7b8894" stroke="#7b8894" points="271.5,-670.33 268,-660.33 264.5,-670.33 271.5,-670.33"/>
<text text-anchor="middle" x="310.5" y="-701.2" font-family="Sans-Serif" font-size="11.00" fill="#2d3436">Distribute traffic</text>
</g>
<g id="node5" class="node">
<title>c1</title>
<image xlink:href="https://raw.githubusercontent.com/mingrammer/diagrams/master/resources/aws/compute/elastic-container-service-container.png" width="101px" height="101px" preserveAspectRatio="xMinYMin meet" x="142.5" y="-431.5"/>
<text text-anchor="middle" x="193" y="-315.6" font-family="Sans-Serif" font-size="13.00" fill="#2d3436">Java Container</text>
<text text-anchor="middle" x="193" y="-301.6" font-family="Sans-Serif" font-size="13.00" fill="#2d3436">AZ-1</text>
</g>
<g id="edge4" class="edge">
<title>ecs-c1</title>
<path fill="none" stroke="#7b8894" d="M230.5,-522.87C230.5,-522.87 230.5,-474.24 230.5,-474.24"/>
<polygon fill="#7b8894" stroke="#7b8894" points="234,-474.24 230.5,-464.24 227,-474.24 234,-474.24"/>
</g>
<g id="node6" class="node">
<title>c2</title>
<image xlink:href="https://raw.githubusercontent.com/mingrammer/diagrams/master/resources/aws/compute/elastic-container-service-container.png" width="101px" height="101px" preserveAspectRatio="xMinYMin meet" x="293.5" y="-431.5"/>
<text text-anchor="middle" x="344" y="-315.6" font-family="Sans-Serif" font-size="13.00" fill="#2d3436">Java Container</text>
<text text-anchor="middle" x="344" y="-301.6" font-family="Sans-Serif" font-size="13.00" fill="#2d3436">AZ-2</text>
</g>
<g id="edge5" class="edge">
<title>ecs-c2</title>
<path fill="none" stroke="#7b8894" d="M306,-522.87C306,-522.87 306,-474.24 306,-474.24"/>
<polygon fill="#7b8894" stroke="#7b8894" points="309.5,-474.24 306,-464.24 302.5,-474.24 309.5,-474.24"/>
</g>
<g id="node7" class="node">
<title>rds</title>
<image xlink:href="https://raw.githubusercontent.com/mingrammer/diagrams/master/resources/aws/database/rds.png" width="101px" height="101px" preserveAspectRatio="xMinYMin meet" x="142.5" y="-195.5"/>
<text text-anchor="middle" x="193" y="-79.6" font-family="Sans-Serif" font-size="13.00" fill="#2d3436">Amazon RDS</text>
<text text-anchor="middle" x="193" y="-65.6" font-family="Sans-Serif" font-size="13.00" fill="#2d3436">Multi-AZ</text>
</g>
<g id="edge6" class="edge">
<title>c1-rds</title>
<path fill="none" stroke="#7b8894" d="M167.75,-297.8C167.75,-297.8 167.75,-238.25 167.75,-238.25"/>
<polygon fill="#7b8894" stroke="#7b8894" points="171.25,-238.25 167.75,-228.25 164.25,-238.25 171.25,-238.25"/>
<text text-anchor="middle" x="207.5" y="-260.2" font-family="Sans-Serif" font-size="11.00" fill="#2d3436">Query</text>
</g>
<g id="node8" class="node">
<title>s3</title>
<image xlink:href="https://raw.githubusercontent.com/mingrammer/diagrams/master/resources/aws/storage/simple-storage-service-s3.png" width="101px" height="101px" preserveAspectRatio="xMinYMin meet" x="293.5" y="-195.5"/>
<text text-anchor="middle" x="344" y="-79.6" font-family="Sans-Serif" font-size="13.00" fill="#2d3436">Amazon S3</text>
<text text-anchor="middle" x="344" y="-65.6" font-family="Sans-Serif" font-size="13.00" fill="#2d3436">Static Assets</text>
</g>
<g id="edge8" class="edge">
<title>c1-s3</title>
<path fill="none" stroke="#7b8894" d="M218.25,-297.93C218.25,-272.46 218.25,-251 218.25,-251 218.25,-251 344,-251 344,-251 344,-251 344,-238.26 344,-238.26"/>
<polygon fill="#7b8894" stroke="#7b8894" points="347.5,-238.26 344,-228.26 340.5,-238.26 347.5,-238.26"/>
<text text-anchor="middle" x="308.5" y="-260.2" font-family="Sans-Serif" font-size="11.00" fill="#2d3436">Store / read</text>
</g>
<g id="edge7" class="edge">
<title>c2-rds</title>
<path fill="none" stroke="#7b8894" d="M318.75,-297.75C318.75,-283.93 318.75,-274 318.75,-274 318.75,-274 193,-274 193,-274 193,-274 193,-238.16 193,-238.16"/>
<polygon fill="#7b8894" stroke="#7b8894" points="196.5,-238.16 193,-228.16 189.5,-238.16 196.5,-238.16"/>
</g>
<g id="edge9" class="edge">
<title>c2-s3</title>
<path fill="none" stroke="#7b8894" d="M369.25,-297.8C369.25,-297.8 369.25,-238.25 369.25,-238.25"/>
<polygon fill="#7b8894" stroke="#7b8894" points="372.75,-238.25 369.25,-228.25 365.75,-238.25 372.75,-238.25"/>
</g>
</g>
</svg>
